<svg width="761" height="757" viewBox="0 0 761 757" fill="none" xmlns="http://www.w3.org/2000/svg">
<g clip-path="url(#clip0)">
<path d="M501.96 200.341H377.055C374.32 200.349 371.62 199.735 369.159 198.544C366.698 197.353 364.542 195.618 362.854 193.47C361.136 191.301 359.936 188.77 359.345 186.069C358.754 183.367 358.788 180.567 359.445 177.88C370.957 129.736 370.957 79.5625 359.444 31.4185C358.788 28.7323 358.754 25.932 359.345 23.2307C359.936 20.5294 361.136 17.9983 362.854 15.8299C364.542 13.6816 366.698 11.9461 369.159 10.7554C371.62 9.56462 374.32 8.95006 377.055 8.95846H501.96C506.273 8.97083 510.441 10.5112 513.722 13.3053C517.003 16.0994 519.185 19.9657 519.878 24.2156C528.098 77.5243 528.098 131.775 519.878 185.084C519.185 189.334 517.003 193.2 513.722 195.994C510.441 198.788 506.273 200.329 501.96 200.341Z" fill="#FFE03C"/>
<path d="M377.055 18.3423C375.741 18.3379 374.444 18.6326 373.263 19.2041C372.081 19.7755 371.045 20.6085 370.234 21.6398C369.399 22.6965 368.816 23.9294 368.53 25.2448C368.244 26.5602 368.262 27.9233 368.583 29.2306C380.44 78.8132 380.44 130.486 368.584 180.069C368.263 181.376 368.244 182.739 368.53 184.054C368.816 185.369 369.398 186.602 370.233 187.658L370.234 187.659C371.045 188.691 372.081 189.524 373.263 190.095C374.444 190.667 375.741 190.962 377.055 190.957H501.96C504.031 190.958 506.035 190.225 507.615 188.888C509.195 187.551 510.249 185.698 510.589 183.658C518.663 131.294 518.663 78.0052 510.589 25.6414C510.249 23.6015 509.195 21.7482 507.615 20.4116C506.035 19.0749 504.031 18.3416 501.96 18.3423L377.055 18.3423Z" fill="white"/>
<path d="M474.703 63.4643H409.158C406.666 63.4615 404.277 62.472 402.515 60.7129C400.754 58.9537 399.763 56.5686 399.76 54.0807V50.4138C399.763 47.926 400.754 45.5408 402.515 43.7816C404.277 42.0225 406.666 41.033 409.158 41.0303H474.703C477.195 41.033 479.583 42.0225 481.345 43.7816C483.107 45.5408 484.098 47.926 484.101 50.4138V54.0808C484.098 56.5686 483.107 58.9538 481.345 60.7129C479.583 62.4721 477.195 63.4615 474.703 63.4643Z" fill="#FFB7B7"/>
<path d="M474.703 109.798H409.158C406.666 109.796 404.277 108.806 402.515 107.047C400.754 105.288 399.763 102.903 399.76 100.415V96.7479C399.763 94.26 400.754 91.8749 402.515 90.1157C404.277 88.3565 406.666 87.3671 409.158 87.3644H474.703C477.195 87.3671 479.583 88.3565 481.345 90.1157C483.107 91.8749 484.098 94.26 484.101 96.7479V100.415C484.098 102.903 483.107 105.288 481.345 107.047C479.583 108.806 477.195 109.796 474.703 109.798Z" fill="#FFB7B7"/>
<path d="M474.703 156.132H409.158C406.666 156.13 404.277 155.14 402.515 153.381C400.754 151.622 399.763 149.237 399.76 146.749V143.082C399.763 140.594 400.754 138.209 402.515 136.45C404.277 134.691 406.666 133.701 409.158 133.698H474.703C477.195 133.701 479.583 134.691 481.345 136.45C483.107 138.209 484.098 140.594 484.101 143.082V146.749C484.098 149.237 483.107 151.622 481.345 153.381C479.583 155.14 477.195 156.13 474.703 156.132Z" fill="#FFB7B7"/>
<path d="M736.917 319.204H612.012C609.277 319.212 606.577 318.597 604.116 317.406C601.655 316.216 599.499 314.48 597.811 312.332C596.093 310.164 594.892 307.632 594.302 304.931C593.711 302.229 593.745 299.429 594.402 296.743C605.914 248.599 605.914 198.425 594.401 150.281C593.745 147.595 593.711 144.794 594.302 142.093C594.893 139.392 596.093 136.861 597.811 134.692C599.499 132.544 601.655 130.808 604.116 129.618C606.577 128.427 609.277 127.812 612.012 127.821H736.917C741.229 127.833 745.397 129.374 748.679 132.168C751.96 134.962 754.142 138.828 754.835 143.078C763.055 196.387 763.055 250.638 754.835 303.946C754.142 308.196 751.96 312.063 748.679 314.857C745.397 317.651 741.229 319.191 736.917 319.204Z" fill="#FFE03C"/>
<path d="M612.012 137.205C610.698 137.2 609.401 137.495 608.219 138.066C607.038 138.638 606.002 139.471 605.191 140.502C604.356 141.559 603.773 142.792 603.487 144.107C603.201 145.422 603.219 146.786 603.54 148.093C615.397 197.676 615.397 249.349 603.541 298.931C603.22 300.238 603.201 301.601 603.487 302.916C603.773 304.231 604.355 305.464 605.19 306.521L605.191 306.521C606.002 307.553 607.038 308.386 608.219 308.958C609.401 309.529 610.698 309.824 612.012 309.82H736.917C738.988 309.82 740.992 309.087 742.572 307.75C744.152 306.414 745.206 304.56 745.546 302.521C753.62 250.157 753.62 196.867 745.546 144.504C745.206 142.464 744.152 140.611 742.572 139.274C740.992 137.937 738.988 137.204 736.917 137.205L612.012 137.205Z" fill="white"/>
<path d="M487.863 454.488H362.957C360.104 454.496 357.287 453.855 354.72 452.613C352.152 451.37 349.903 449.56 348.142 447.318C346.35 445.057 345.098 442.418 344.482 439.601C343.866 436.784 343.901 433.864 344.586 431.062C356.069 383.038 356.069 332.99 344.585 284.966C343.901 282.165 343.866 279.245 344.482 276.428C345.098 273.611 346.35 270.971 348.142 268.71C349.902 266.469 352.152 264.658 354.719 263.416C357.287 262.174 360.104 261.532 362.957 261.541H487.863C492.362 261.555 496.71 263.162 500.133 266.078C503.556 268.993 505.832 273.027 506.554 277.461C514.787 330.849 514.787 385.18 506.554 438.568C505.832 443.002 503.556 447.036 500.133 449.951C496.71 452.867 492.362 454.474 487.863 454.488Z" fill="#F2F2F2"/>
<path d="M709.66 205.786H644.115C641.623 205.784 639.234 204.794 637.472 203.035C635.711 201.276 634.72 198.891 634.717 196.403V192.736C634.72 190.248 635.711 187.863 637.472 186.104C639.234 184.345 641.623 183.355 644.115 183.352H709.66C712.151 183.355 714.54 184.345 716.302 186.104C718.064 187.863 719.055 190.248 719.058 192.736V196.403C719.055 198.891 718.064 201.276 716.302 203.035C714.54 204.794 712.151 205.784 709.66 205.786Z" fill="#FFB7B7"/>
<path d="M709.66 252.12H644.115C641.623 252.118 639.234 251.128 637.472 249.369C635.711 247.61 634.72 245.225 634.717 242.737V239.07C634.72 236.582 635.711 234.197 637.472 232.438C639.234 230.679 641.623 229.689 644.115 229.687H709.66C712.151 229.689 714.54 230.679 716.302 232.438C718.064 234.197 719.055 236.582 719.058 239.07V242.737C719.055 245.225 718.064 247.61 716.302 249.369C714.54 251.128 712.151 252.118 709.66 252.12Z" fill="#FFB7B7"/>
<path d="M425.759 393.341C445.656 393.341 461.786 377.236 461.786 357.369C461.786 337.502 445.656 321.397 425.759 321.397C405.862 321.397 389.732 337.502 389.732 357.369C389.732 377.236 405.862 393.341 425.759 393.341Z" fill="white"/>
<path d="M442.989 352.677H430.458V340.165C430.458 338.921 429.963 337.728 429.082 336.848C428.201 335.968 427.006 335.473 425.759 335.473C424.513 335.473 423.318 335.968 422.436 336.848C421.555 337.728 421.06 338.921 421.06 340.165V352.677H408.529C407.283 352.677 406.088 353.171 405.206 354.051C404.325 354.931 403.83 356.125 403.83 357.369C403.83 358.613 404.325 359.807 405.206 360.687C406.088 361.567 407.283 362.061 408.529 362.061H421.06V374.573C421.06 375.817 421.555 377.011 422.436 377.891C423.318 378.77 424.513 379.265 425.759 379.265C427.006 379.265 428.201 378.77 429.082 377.891C429.963 377.011 430.458 375.817 430.458 374.573V362.061H442.989C444.236 362.061 445.431 361.567 446.312 360.687C447.193 359.807 447.689 358.613 447.689 357.369C447.689 356.125 447.193 354.931 446.312 354.051C445.431 353.171 444.236 352.677 442.989 352.677Z" fill="#FFB7B7"/>
<path d="M471.184 26.5876H405.396C403.527 26.5855 401.736 25.8434 400.414 24.524C399.093 23.2045 398.35 21.4157 398.348 19.5497V7.0379C398.35 5.17198 399.093 3.38308 400.414 2.06368C401.736 0.744268 403.527 0.00210286 405.396 0H471.184C473.053 0.00210286 474.845 0.744268 476.166 2.06368C477.487 3.38308 478.231 5.17198 478.233 7.0379V19.5497C478.231 21.4157 477.487 23.2045 476.166 24.524C474.845 25.8434 473.053 26.5855 471.184 26.5876Z" fill="#CCCCCC"/>
<path d="M709.274 147.014H643.486C641.617 147.012 639.826 146.27 638.504 144.95C637.183 143.631 636.439 141.842 636.437 139.976V127.464C636.439 125.598 637.183 123.809 638.504 122.49C639.826 121.171 641.617 120.428 643.486 120.426H709.274C711.143 120.428 712.934 121.171 714.256 122.49C715.577 123.809 716.321 125.598 716.323 127.464V139.976C716.321 141.842 715.577 143.631 714.256 144.95C712.934 146.27 711.143 147.012 709.274 147.014Z" fill="#CCCCCC"/>
<path d="M138.775 736.729H157.979L163.983 662.772H138.772L138.775 736.729Z" fill="#FFB8B8"/>
<path d="M133.877 730.469L171.696 730.468H171.697C174.862 730.468 177.996 731.09 180.92 732.299C183.844 733.509 186.501 735.281 188.739 737.516C190.977 739.75 192.752 742.403 193.964 745.323C195.175 748.242 195.798 751.371 195.798 754.532V755.314L133.878 755.316L133.877 730.469Z" fill="#2F2E41"/>
<path d="M35.3939 736.729H54.5977L63.7344 662.772H35.3908L35.3939 736.729Z" fill="#FFB8B8"/>
<path d="M30.4962 730.469L68.3145 730.468H68.3161C71.4811 730.468 74.6151 731.09 77.5392 732.299C80.4633 733.509 83.1202 735.281 85.3582 737.516C87.5962 739.75 89.3714 742.403 90.5826 745.323C91.7938 748.242 92.4172 751.371 92.4171 754.532V755.314L30.4973 755.316L30.4962 730.469Z" fill="#2F2E41"/>
<path d="M38.8011 713.366C36.8422 713.365 34.9551 712.629 33.5146 711.304C32.7414 710.599 32.1186 709.746 31.6837 708.796C31.2488 707.845 31.0107 706.817 30.9838 705.772L23.2824 430.178L132.633 457.473L166.372 558.533C170.723 571.534 172.606 585.231 171.926 598.922L167.736 696.884C167.641 698.891 166.775 700.784 165.318 702.17C163.861 703.556 161.926 704.329 159.913 704.327H141.573C139.679 704.319 137.853 703.63 136.427 702.387C135.002 701.143 134.073 699.428 133.811 697.556L120.703 589.42C119.557 580.984 116.601 572.894 112.038 565.703L86.2403 524.921C86.0678 524.648 85.8152 524.436 85.5171 524.312C85.2191 524.189 84.89 524.16 84.575 524.23C84.2599 524.3 83.9744 524.466 83.7572 524.705C83.5401 524.943 83.402 525.243 83.3618 525.562L63.117 705.558C62.8997 707.384 62.0442 709.074 60.7013 710.332C59.3583 711.59 57.614 712.334 55.7754 712.434L39.247 713.352C39.0983 713.36 38.9499 713.366 38.8011 713.366Z" fill="#2F2E41"/>
<path d="M114.436 251.749C135.683 251.749 152.908 234.551 152.908 213.336C152.908 192.121 135.683 174.923 114.436 174.923C93.1886 174.923 75.9641 192.121 75.9641 213.336C75.9641 234.551 93.1886 251.749 114.436 251.749Z" fill="#FFB8B8"/>
<path d="M132.109 468.681C131.447 468.68 130.788 468.596 130.147 468.432H130.146L21.6514 440.656C19.7116 440.16 18.0359 438.941 16.9688 437.249C15.9016 435.558 15.5241 433.522 15.914 431.561L40.8306 297.542C42.3829 289.796 45.7952 282.541 50.7743 276.401C55.7534 270.26 62.1506 265.419 69.4166 262.291C76.4965 259.162 84.2388 257.822 91.9603 258.388C99.6818 258.954 107.145 261.409 113.691 265.537C115.21 266.483 116.74 267.514 118.238 268.603C124.267 273.044 129.183 278.819 132.602 285.475C136.02 292.131 137.848 299.487 137.941 306.967L139.922 460.75C139.936 461.785 139.744 462.811 139.357 463.771C138.971 464.731 138.398 465.605 137.672 466.342C136.945 467.079 136.08 467.666 135.125 468.067C134.17 468.469 133.145 468.677 132.109 468.681Z" fill="#6C63FF"/>
<path d="M32.8146 470.257C31.5203 468.355 30.6594 466.193 30.2925 463.924C29.9256 461.654 30.0617 459.331 30.691 457.12C31.3203 454.908 32.4276 452.861 33.935 451.123C35.4423 449.385 37.313 447.998 39.4153 447.06L34.5896 391.379L60.1624 405.218L60.8243 455.971C62.1687 459.602 62.1326 463.599 60.7226 467.205C59.3127 470.811 56.627 473.775 53.1744 475.536C49.7219 477.297 45.7423 477.732 41.9899 476.759C38.2375 475.786 34.9728 473.473 32.8146 470.257H32.8146Z" fill="#FFB8B8"/>
<path d="M41.9507 439.695C41.2292 439.695 40.5105 439.604 39.8115 439.425C38.308 439.042 36.936 438.261 35.8409 437.163C34.7457 436.066 33.968 434.693 33.59 433.191L21.0226 383.325C16.6306 365.909 18.7243 347.493 26.9141 331.503L53.2431 280.077C54.9075 273.919 58.9289 268.662 64.4401 265.438C69.9513 262.214 76.5107 261.283 82.7037 262.844C85.7905 263.622 88.6918 265.004 91.2394 266.911C93.7871 268.817 95.9303 271.209 97.545 273.949C99.1928 276.728 100.271 279.806 100.715 283.005C101.16 286.204 100.963 289.459 100.136 292.581L62.6563 376.263L63.1014 426.366C63.113 428.133 62.5807 429.862 61.5766 431.318C60.5724 432.773 59.1449 433.886 57.4868 434.506L44.9443 439.156C43.9865 439.513 42.9728 439.695 41.9507 439.695Z" fill="#6C63FF"/>
<path d="M221.357 449.776C219.069 449.515 216.867 448.756 214.904 447.553C212.942 446.35 211.268 444.732 209.999 442.813C208.731 440.894 207.899 438.721 207.563 436.447C207.227 434.172 207.395 431.851 208.054 429.649L162.639 396.978L189.826 386.653L228.785 419.26C232.418 420.611 235.428 423.246 237.246 426.665C239.063 430.085 239.561 434.051 238.646 437.812C237.73 441.574 235.465 444.869 232.278 447.074C229.092 449.279 225.206 450.241 221.357 449.776H221.357Z" fill="#FFB8B8"/>
<path d="M197.583 425.919C196.244 425.918 194.923 425.607 193.725 425.01L147.675 401.992C131.591 393.954 118.977 380.357 112.18 363.729L90.3177 310.256C86.7299 304.979 85.3626 298.506 86.5106 292.232C87.6585 285.959 91.2297 280.386 96.4543 276.717C99.0647 274.885 102.014 273.589 105.131 272.906C108.248 272.223 111.47 272.167 114.609 272.739C117.785 273.31 120.816 274.503 123.527 276.252C126.237 278 128.573 280.268 130.4 282.924L169.473 365.877L207.796 398.224C209.145 399.368 210.11 400.899 210.56 402.608C211.01 404.318 210.924 406.124 210.312 407.783L205.661 420.308C205.053 421.95 203.956 423.368 202.517 424.368C201.07 425.378 199.348 425.919 197.583 425.919Z" fill="#6C63FF"/>
<path d="M106.357 252.337C108.402 253.23 112.587 236.967 110.712 233.715C107.924 228.877 108.089 228.912 106.238 225.712C104.386 222.511 103.972 218.131 106.369 215.315C108.767 212.499 114.314 212.873 115.408 216.403C114.704 209.697 121.348 204.307 127.928 202.792C134.509 201.277 141.45 202.217 148.067 200.869C155.746 199.305 163.735 192.878 160.672 184.447C160.146 183.043 159.359 181.751 158.352 180.64C154.812 176.666 149.86 174.969 145.019 173.328C134.947 169.915 124.599 166.459 113.97 166.835C105.211 167.293 96.7766 170.289 89.6974 175.458C82.6183 180.627 77.2019 187.745 74.111 195.94C73.3784 197.99 72.8109 200.095 72.4139 202.235C68.7654 221.823 80.1576 241.144 98.6605 248.603L106.357 252.337Z" fill="#2F2E41"/>
<path opacity="0.2" d="M60.9322 427.503L61.8046 376.002L89.127 321.152L67.1977 377.455L60.9322 427.503Z" fill="black"/>
<path d="M308.698 556.749L193.352 508.898C190.824 507.858 188.566 506.256 186.751 504.214C184.937 502.172 183.612 499.743 182.879 497.112C182.125 494.452 181.99 491.654 182.482 488.933C182.975 486.212 184.083 483.639 185.721 481.41C214.853 441.361 234.133 395.027 242.002 346.158C242.428 343.426 243.473 340.827 245.056 338.558C246.64 336.29 248.721 334.413 251.141 333.068C253.525 331.731 256.183 330.954 258.913 330.797C261.643 330.641 264.373 331.108 266.895 332.163L382.241 380.014C386.219 381.677 389.476 384.697 391.432 388.534C393.389 392.371 393.918 396.777 392.925 400.967C380.031 453.345 359.183 503.444 331.107 549.523C328.834 553.183 325.334 555.917 321.23 557.241C317.126 558.564 312.685 558.389 308.698 556.749Z" fill="#FFE03C"/>
<path d="M263.289 340.829C262.078 340.322 260.767 340.097 259.456 340.172C258.145 340.247 256.869 340.619 255.723 341.261C254.546 341.917 253.534 342.832 252.765 343.937C251.995 345.042 251.488 346.308 251.282 347.638C243.178 397.968 223.322 445.687 193.32 486.933C192.521 488.016 191.98 489.268 191.739 490.592C191.497 491.916 191.562 493.277 191.927 494.573L191.927 494.574C192.279 495.837 192.916 497.003 193.787 497.984C194.659 498.964 195.744 499.734 196.958 500.233L312.304 548.083C314.216 548.877 316.348 548.968 318.321 548.339C320.294 547.71 321.979 546.402 323.077 544.649C350.655 499.386 371.133 450.175 383.799 398.726C384.269 396.712 384.008 394.597 383.062 392.757C382.117 390.917 380.548 389.472 378.635 388.68L263.289 340.829Z" fill="white"/>
<path d="M324.706 447.347L264.177 422.237C261.877 421.28 260.052 419.451 259.101 417.151C258.15 414.852 258.151 412.27 259.105 409.971L260.514 406.585C261.472 404.289 263.304 402.466 265.607 401.516C267.91 400.567 270.496 400.568 272.798 401.52L333.327 426.63C335.627 427.587 337.452 429.416 338.403 431.715C339.354 434.015 339.353 436.597 338.4 438.896L336.99 442.282C336.032 444.578 334.2 446.401 331.897 447.351C329.594 448.3 327.008 448.299 324.706 447.347Z" fill="#FFB7B7"/>
<path d="M306.901 490.135L246.372 465.025C244.072 464.068 242.247 462.239 241.296 459.939C240.345 457.64 240.346 455.058 241.3 452.759L242.709 449.373C243.667 447.076 245.499 445.254 247.802 444.304C250.105 443.354 252.691 443.356 254.993 444.308L315.522 469.418C317.822 470.375 319.647 472.204 320.599 474.503C321.55 476.803 321.548 479.385 320.595 481.684L319.186 485.07C318.227 487.366 316.395 489.189 314.092 490.139C311.789 491.088 309.203 491.087 306.901 490.135Z" fill="#FFB7B7"/>
<path d="M348.96 387.213C348.054 387.212 347.156 387.037 346.317 386.696L285.325 362.075C283.594 361.373 282.211 360.015 281.482 358.297C280.752 356.579 280.734 354.643 281.432 352.912L286.13 341.312C286.831 339.582 288.191 338.2 289.912 337.472C291.633 336.743 293.573 336.726 295.306 337.426L356.298 362.047C358.03 362.748 359.412 364.107 360.142 365.825C360.872 367.542 360.89 369.479 360.191 371.21L355.494 382.81C354.966 384.109 354.063 385.221 352.899 386.006C351.735 386.79 350.364 387.21 348.96 387.213Z" fill="#CCCCCC"/>
<path d="M220.859 756.184H1.56636C1.15093 756.184 0.752542 756.019 0.458789 755.725C0.165036 755.432 -1.52588e-05 755.034 -1.52588e-05 754.62C-1.52588e-05 754.205 0.165036 753.807 0.458789 753.514C0.752542 753.22 1.15093 753.056 1.56636 753.056H220.859C221.275 753.056 221.673 753.22 221.967 753.514C222.261 753.807 222.426 754.205 222.426 754.62C222.426 755.034 222.261 755.432 221.967 755.725C221.673 756.019 221.275 756.184 220.859 756.184Z" fill="#CCCCCC"/>
</g>
<defs>
<clipPath id="clip0">
<rect width="761" height="756.184" fill="white"/>
</clipPath>
</defs>
</svg>
